<?xml version="1.0" encoding="UTF-8"?>
<svg id="project" xmlns="http://www.w3.org/2000/svg" version="1.1" xmlns:xlink="http://www.w3.org/1999/xlink" viewBox="0 0 600 600">
  <defs>
    <linearGradient id="linear-gradient" x1="-195" y1="789" x2="-195" y2="791.5" gradientTransform="translate(6541 25805) scale(32 -32)" gradientUnits="userSpaceOnUse">
      <stop offset="0" stop-color="#bea5d6"/>
      <stop offset="1" stop-color="#bea5d6" stop-opacity="0"/>
    </linearGradient>
    <radialGradient id="radial-gradient" cx="-208.2" cy="814" fx="-208.2" fy="814" r=".6" gradientTransform="translate(51921.2 9246.5) rotate(-65.6) scale(64.3 -62.2)" gradientUnits="userSpaceOnUse">
      <stop offset=".4" stop-color="#ab8cc8"/>
      <stop offset="1" stop-color="#ab8cc8" stop-opacity="0"/>
    </radialGradient>
    <linearGradient id="linear-gradient-2" x1="-190" y1="804.2" x2="-192" y2="801.4" gradientTransform="translate(6541 25805) scale(32 -32)" gradientUnits="userSpaceOnUse">
      <stop offset="0" stop-color="#faf9fa"/>
      <stop offset="1" stop-color="#faf9fa" stop-opacity="0"/>
    </linearGradient>
    <linearGradient id="linear-gradient-3" x1="-197.9" y1="804.3" x2="-197.7" y2="803.9" gradientTransform="translate(6541 25805) scale(32 -32)" gradientUnits="userSpaceOnUse">
      <stop offset="0" stop-color="#c9c9c9"/>
      <stop offset="1" stop-color="#c9c9c9" stop-opacity="0"/>
    </linearGradient>
    <linearGradient id="linear-gradient-4" x1="-193.9" y1="797.7" x2="-186.7" y2="791.9" gradientTransform="translate(6541 25805) scale(32 -32)" gradientUnits="userSpaceOnUse">
      <stop offset="0" stop-color="#e7e1ed"/>
      <stop offset="1" stop-color="#e4ddec"/>
    </linearGradient>
    <linearGradient id="linear-gradient-5" x1="-202.5" y1="801.4" x2="-195.5" y2="789.4" gradientTransform="translate(6541 25805) scale(32 -32)" gradientUnits="userSpaceOnUse">
      <stop offset="0" stop-color="#b7b1be"/>
      <stop offset="1" stop-color="#ab9eba"/>
    </linearGradient>
    <radialGradient id="radial-gradient-2" cx="-210.8" cy="809.6" fx="-210.8" fy="809.6" r=".6" gradientTransform="translate(31720.6 30113.8) scale(149.3 -37)" gradientUnits="userSpaceOnUse">
      <stop offset="0" stop-color="#ff647d"/>
      <stop offset="1" stop-color="#e14065"/>
    </radialGradient>
    <radialGradient id="radial-gradient-3" cx="-211.7" cy="812.4" fx="-211.7" fy="812.4" r=".6" gradientTransform="translate(-43263.7 -80606.8) rotate(167.2) scale(116.4 -109.2)" gradientUnits="userSpaceOnUse">
      <stop offset=".3" stop-color="#46377c"/>
      <stop offset="1" stop-color="#4e306a"/>
    </radialGradient>
    <radialGradient id="radial-gradient-4" cx="-213.2" cy="811.5" fx="-213.2" fy="811.5" r=".6" gradientTransform="translate(-16054.6 -29825.4) rotate(168.9) scale(48.1 -40.5)" gradientUnits="userSpaceOnUse">
      <stop offset="0" stop-color="#65568a"/>
      <stop offset="1" stop-color="#65568a" stop-opacity="0"/>
    </radialGradient>
    <radialGradient id="radial-gradient-5" cx="-211" cy="812.2" fx="-211" fy="812.2" r=".6" gradientTransform="translate(-43124.8 -80692.6) rotate(167.2) scale(116.4 -109.2)" xlink:href="#radial-gradient-3"/>
    <radialGradient id="radial-gradient-6" cx="-211.6" cy="810.9" fx="-211.6" fy="810.9" r=".6" gradientTransform="translate(-15915.7 -29911.2) rotate(168.9) scale(48.1 -40.5)" xlink:href="#radial-gradient-4"/>
    <radialGradient id="radial-gradient-7" cx="-210.4" cy="811.9" fx="-210.4" fy="811.9" r=".6" gradientTransform="translate(-42984.2 -80780.6) rotate(167.2) scale(116.4 -109.2)" xlink:href="#radial-gradient-3"/>
    <radialGradient id="radial-gradient-8" cx="-210" cy="810.2" fx="-210" fy="810.2" r=".6" gradientTransform="translate(-15775.1 -29999.1) rotate(168.9) scale(48.1 -40.5)" xlink:href="#radial-gradient-4"/>
    <radialGradient id="radial-gradient-9" cx="-211.3" cy="814.8" fx="-211.3" fy="814.8" r=".6" gradientTransform="translate(-68431.8 -12023.2) rotate(-103.3) scale(131.8 78.3)" gradientUnits="userSpaceOnUse">
      <stop offset="0" stop-color="#3e284e"/>
      <stop offset="1" stop-color="#40306f"/>
    </radialGradient>
    <radialGradient id="radial-gradient-10" cx="-209.8" cy="813.9" fx="-209.8" fy="813.9" r=".6" gradientTransform="translate(-76523.2 -34945) rotate(-84.8) scale(134.9 97.9)" xlink:href="#radial-gradient-9"/>
  </defs>
  <g>
    <path d="M86.7,120.6c-21.5,8.3-35.7,29-35.7,52.1v253c0,22.9,14,43.5,35.3,51.9l193.7,76.6c13.2,5.2,27.9,5.2,41.1,0l193.7-76.6c21.3-8.4,35.3-29,35.3-51.9v-253c0-23.1-14.2-43.8-35.7-52.1l-193.7-74.9c-13-5-27.3-5-40.3,0L86.7,120.6Z" fill="#deddde" stroke-width="0"/>
    <path d="M86.7,120.6c-21.5,8.3-35.7,29-35.7,52.1v253c0,22.9,14,43.5,35.3,51.9l193.7,76.6c13.2,5.2,27.9,5.2,41.1,0l193.7-76.6c21.3-8.4,35.3-29,35.3-51.9v-253c0-23.1-14.2-43.8-35.7-52.1l-193.7-74.9c-13-5-27.3-5-40.3,0L86.7,120.6Z" fill="url(#linear-gradient)" stroke-width="0"/>
    <path d="M86.7,120.6c-21.5,8.3-35.7,29-35.7,52.1v253c0,22.9,14,43.5,35.3,51.9l193.7,76.6c13.2,5.2,27.9,5.2,41.1,0l193.7-76.6c21.3-8.4,35.3-29,35.3-51.9v-253c0-23.1-14.2-43.8-35.7-52.1l-193.7-74.9c-13-5-27.3-5-40.3,0L86.7,120.6Z" fill="url(#radial-gradient)" stroke-width="0"/>
  </g>
  <path d="M86.7,120.6c-21.5,8.3-35.7,29-35.7,52.1v253c0,22.9,14,43.5,35.3,51.9l193.7,76.6c13.2,5.2,27.9,5.2,41.1,0l193.7-76.6c21.3-8.4,35.3-29,35.3-51.9v-253c0-23.1-14.2-43.8-35.7-52.1l-193.7-74.9c-13-5-27.3-5-40.3,0L86.7,120.6Z" fill="url(#linear-gradient-2)" stroke-width="0"/>
  <path d="M86.7,120.6c-21.5,8.3-35.7,29-35.7,52.1v253c0,22.9,14,43.5,35.3,51.9l193.7,76.6c13.2,5.2,27.9,5.2,41.1,0l193.7-76.6c21.3-8.4,35.3-29,35.3-51.9v-253c0-23.1-14.2-43.8-35.7-52.1l-193.7-74.9c-13-5-27.3-5-40.3,0L86.7,120.6Z" fill="url(#linear-gradient-3)" stroke-width="0"/>
  <path d="M82.7,452.2l183.4,74.3c16.4,6.7,34.4-5.4,34.4-23.2v-236.5c0-21.7-13-41.2-33-49.5l-171.7-71.3c-16.5-6.8-34.6,5.3-34.6,23.1v240.1c0,17.2,8.2,33,21.5,43Z" fill="#c5c2c8" stroke-width="0"/>
  <path d="M516.4,433l-183.4,72.6c-16.4,6.5-34.4-5.3-34.4-22.7v-231.1c0-21.2,13-40.3,33-48.4l171.7-69.7c16.5-6.7,34.6,5.1,34.6,22.6v234.6c0,16.8-8.2,32.3-21.5,42Z" fill="#f6f4f8" stroke-width="0"/>
  <path d="M549.9,169.9c-3.6-15-20-24.1-35.1-17.9l-181.7,74.4c-20.9,8.6-34.6,28.9-34.6,51.5v245.6c0,18.4,18.6,30.9,35.6,24.1l193.1-77.1c14.1-10.4,22.7-26.9,22.7-45v-253c0-.9,0-1.8,0-2.7Z" fill="url(#linear-gradient-4)" stroke-width="0"/>
  <path d="M72.3,470.5l190.5,77.2c17.1,6.9,35.7-5.7,35.7-24.1v-245.6c0-22.5-13.5-42.8-34.3-51.4l-178.3-74.1c-17.1-7.1-36,5.5-36,24v249.4c0,17.9,8.5,34.3,22.3,44.7Z" fill="url(#linear-gradient-5)" stroke-width="0"/>
  <ellipse cx="299.6" cy="122.6" rx="50.8" ry="21.5" fill="url(#radial-gradient-2)" stroke-width="0"/>
  <ellipse cx="369.3" cy="451.2" rx="44.1" ry="28.1" transform="translate(-191.5 610.8) rotate(-66.6)" fill="url(#radial-gradient-3)" stroke-width="0"/>
  <ellipse cx="369.3" cy="451.2" rx="44.1" ry="28.1" transform="translate(-191.5 610.8) rotate(-66.6)" fill="url(#radial-gradient-4)" stroke-width="0"/>
  <ellipse cx="427.3" cy="354.7" rx="44.1" ry="28.1" transform="translate(-67.9 605.9) rotate(-66.6)" fill="url(#radial-gradient-5)" stroke-width="0"/>
  <ellipse cx="427.3" cy="354.7" rx="44.1" ry="28.1" transform="translate(-67.9 605.9) rotate(-66.6)" fill="url(#radial-gradient-6)" stroke-width="0"/>
  <ellipse cx="485.7" cy="256.2" rx="44.1" ry="28.1" transform="translate(57.6 600.2) rotate(-66.6)" fill="url(#radial-gradient-7)" stroke-width="0"/>
  <ellipse cx="485.7" cy="256.2" rx="44.1" ry="28.1" transform="translate(57.6 600.2) rotate(-66.6)" fill="url(#radial-gradient-8)" stroke-width="0"/>
  <ellipse cx="113.2" cy="260.6" rx="28.3" ry="47.5" transform="translate(-69 42.6) rotate(-16.4)" fill="url(#radial-gradient-9)" stroke-width="0"/>
  <ellipse cx="235.1" cy="446.4" rx="28.3" ry="47.5" transform="translate(-116.5 84.6) rotate(-16.4)" fill="#5a867b" fill-opacity=".5" stroke-width="0"/>
  <ellipse cx="235.1" cy="446.4" rx="28.3" ry="47.5" transform="translate(-116.5 84.6) rotate(-16.4)" fill="url(#radial-gradient-10)" stroke-width="0"/>
</svg>