<?xml version="1.0" encoding="UTF-8"?>
<svg id="icon" xmlns="http://www.w3.org/2000/svg" baseProfile="tiny" version="1.2" viewBox="0 0 64 64">
  <path id="discord" d="M41.9,40.2c-3-.2-5.3-2.7-5.3-5.7s0-.2,0-.3h0c0,0,0-.2,0-.3,0-3,2.3-5.5,5.3-5.6h0c3,.2,5.3,2.6,5.3,5.6s0,.2,0,.4h0c0,0,0,.2,0,.3,0,3-2.4,5.5-5.3,5.6h0,0ZM22.2,40.2c-3-.2-5.3-2.7-5.3-5.7s0-.2,0-.3h0c0,0,0-.2,0-.3,0-3,2.3-5.5,5.3-5.6h0c3,.2,5.3,2.6,5.3,5.6s0,.2,0,.4h0c0,0,0,.2,0,.3,0,3-2.3,5.5-5.3,5.6h0ZM52.5,13.2c-3.5-1.6-7.5-2.9-11.8-3.7h-.3s0,0,0,0c0,0-.1,0-.2,0h0c-.5.8-1,1.8-1.4,2.9v.2c-2.1-.3-4.5-.5-6.9-.5s-4.7.2-7,.5h.3c-.5-1.3-1-2.3-1.6-3.3v.2c0,0,0,0,0,0s0,0,0,0h0c-4.5.8-8.6,2.1-12.3,3.9h.3c0-.1,0,0,0,0h0C5.8,21.2,2.4,31.2,2.4,41.9s0,3.6.3,5.3v-.2c0,0,0,.1,0,.1h0c4.2,3.2,9.1,5.7,14.4,7.4h.3c0,.1,0,.1,0,.1,0,0,.1,0,.2,0h0c1.1-1.4,2.1-3,2.9-4.7v-.2c.1,0,.1,0,.1,0,0,0,0-.1-.1-.2h0c-1.8-.7-3.3-1.4-4.8-2.3h.2c0,0,0,0,0,0s0-.1,0-.2h0c.3-.2.6-.5.9-.7,0,0,0,0,.1,0s0,0,0,0h0c4.4,2.1,9.5,3.3,14.9,3.3s10.5-1.2,15.1-3.4h-.2c0,0,0,0,0,0,0,0,0,0,.1,0h0c.3.2.6.5.9.7,0,0,0,0,0,.2s0,.1,0,.2h0c-1.3.8-2.8,1.5-4.4,2.1h-.2c0,0-.1.2-.1.2s0,0,0,0h0c1,1.9,2,3.5,3.1,5h0c0,0,0,0,.2,0s0,0,0,0h0c5.7-1.8,10.6-4.3,14.9-7.6h-.1c0,0,0,0,0,0h0c.2-1.5.3-3.3.3-5.2,0-10.7-3.4-20.6-9.1-28.7v.2c0,0,0,0,0,0h0Z" fill="#000" stroke-width="0"/>
</svg>