<?xml version="1.0" encoding="UTF-8"?>
<svg id="icon" xmlns="http://www.w3.org/2000/svg" baseProfile="tiny" version="1.2" viewBox="0 0 64 64">
  <path id="github" d="M32,2.7c16.2,0,29.3,13.5,29.3,30.1s-8.4,24.6-20,28.5c-1.5.3-2-.6-2-1.4s0-4.2,0-8.3-.9-4.6-2-5.6c6.5-.7,13.4-3.3,13.4-14.8s-1.1-6-3-8.1c.3-.8,1.3-3.8-.3-8,0,0-2.5-.8-8.1,3.1-2.3-.7-4.9-1-7.3-1-2.5,0-5,.3-7.3,1-5.6-3.9-8.1-3.1-8.1-3.1-1.6,4.1-.6,7.2-.3,8-1.9,2.1-3,4.8-3,8.1,0,11.5,6.8,14.1,13.4,14.9-.8.8-1.6,2.1-1.9,4-1.7.8-5.9,2.1-8.5-2.5,0,0-1.6-2.9-4.5-3.1,0,0-2.9,0-.2,1.8,0,0,1.9.9,3.3,4.4,0,0,1.7,5.4,9.9,3.5,0,2.5,0,4.9,0,5.6s-.5,1.7-2,1.4c-11.7-4-20.1-15.2-20.1-28.5S15.8,2.7,32,2.7" fill="#000" fill-rule="evenodd" stroke="#000" stroke-miterlimit="12.8" stroke-width="0"/>
</svg>