<?xml version="1.0" encoding="UTF-8"?>
<svg id="icon" xmlns="http://www.w3.org/2000/svg" version="1.1" viewBox="0 0 64 64">
  <defs>
    <style>
      .cls-1 {
        fill: #000;
        stroke-width: 0px;
      }
    </style>
  </defs>
  <path id="google" class="cls-1" d="M43.3,19.3c-2.9-2.8-6.8-4.3-10.8-4.2-7.3,0-13.6,4.9-15.8,11.5-1.2,3.5-1.2,7.2,0,10.7h0c2.2,6.6,8.4,11.5,15.8,11.5s7-1,9.6-2.7h0c3-2,5-5,5.6-8.5h-15.2v-10.8h26.5c.3,1.9.5,3.8.5,5.7,0,8.5-3.1,15.7-8.4,20.6h0c-4.7,4.3-11.1,6.7-18.6,6.7-10.6,0-20.3-5.9-25.1-15.4-4-7.9-4-17.2,0-25.1,4.8-9.5,14.5-15.4,25.1-15.4,7,0,13.7,2.5,18.8,7.3l-8,8Z"/>
</svg>