<?xml version="1.0" encoding="UTF-8"?>
<svg id="icon" xmlns="http://www.w3.org/2000/svg" baseProfile="tiny" version="1.2" viewBox="0 0 64 64">
  <path id="eye-slash" d="M5.7,5.7l52.6,52.6M25.7,25.9c-1.5,1.6-2.5,3.7-2.5,6.1,0,4.8,3.9,8.8,8.8,8.8s4.6-1,6.2-2.5M15.9,16.4c-5.5,3.7-9.8,9.2-11.8,15.6,3.7,11.9,14.8,20.5,27.9,20.5s11.2-1.7,15.8-4.6M29.1,11.7c1,0,1.9-.1,2.9-.1,13.1,0,24.2,8.6,27.9,20.5-.8,2.6-2,5.1-3.5,7.3" fill="none" stroke="#000" stroke-linecap="round" stroke-linejoin="round" stroke-width="5"/>
</svg>
