<?xml version="1.0" encoding="UTF-8"?>
<svg id="Layer_1" data-name="Layer 1" xmlns="http://www.w3.org/2000/svg" version="1.1" viewBox="0 0 1024 1024">
  <defs>
    <style>
      .cls-1 {
        fill: #000;
        stroke: #000;
        stroke-miterlimit: 10;
        stroke-width: 20px;
      }
    </style>
  </defs>
  <path class="cls-1" d="M954.9,830.6l-156.2-156.2c40.9-63.8,64.8-139.6,64.8-221,0-226.5-183.6-410.1-410.1-410.1S43.3,226.9,43.3,453.4s183.6,410.1,410.1,410.1,157.2-23.8,221-64.8l156.2,156.2c34.3,34.3,90,34.3,124.3,0,34.3-34.3,34.3-89.9,0-124.3ZM453.4,834.2c-210.3,0-380.8-170.5-380.8-380.8S243.1,72.6,453.4,72.6s380.8,170.5,380.8,380.8-170.5,380.8-380.8,380.8ZM934.2,934.2c-22.9,22.9-60,22.9-82.8,0l-152.4-152.4c31.4-23.5,59.3-51.5,82.9-82.8l152.3,152.3c22.9,22.9,22.9,60,0,82.9Z"/>
  <path class="cls-1" d="M453.4,101.9c-194.1,0-351.5,157.4-351.5,351.5s157.4,351.5,351.5,351.5,351.5-157.4,351.5-351.5S647.5,101.9,453.4,101.9ZM453.4,775.6c-177.9,0-322.2-144.3-322.2-322.2S275.5,131.2,453.4,131.2s322.2,144.3,322.2,322.2-144.3,322.2-322.2,322.2Z"/>
  <path class="cls-1" d="M453.4,204.4c-8.1,0-14.6,6.5-14.6,14.6s6.5,14.6,14.6,14.6c121.3,0,219.7,98.4,219.7,219.7s6.5,14.6,14.6,14.6,14.6-6.5,14.6-14.6c0-137.5-111.5-249-249-249Z"/>
</svg>