<?xml version="1.0" encoding="UTF-8"?>
<svg id="icon" xmlns="http://www.w3.org/2000/svg" baseProfile="tiny" version="1.2" viewBox="0 0 150 150">
  <circle id="background" cx="75" cy="75" r="75" fill="#0a0b0d" stroke-width="0"/>
  <g id="profive">
    <path id="_Path_" data-name="&amp;lt;Path&amp;gt;" d="M74.7,76.1h.6c5.7,0,10.3-2.1,13.7-5.9,7.5-8.4,6.2-22.8,6.1-24.2-.5-10.3-5.4-15.3-9.4-17.6-3-1.7-6.5-2.7-10.4-2.7h-.3c-2.2,0-6.4.3-10.4,2.7-4.1,2.3-9,7.3-9.5,17.7-.1,1.4-1.4,15.8,6.1,24.2,3.4,3.8,8,5.8,13.7,5.9ZM60.1,46.5c0,0,0-.1,0-.2.6-13.9,10.5-15.4,14.7-15.4h.2c5.2.1,14.1,2.2,14.7,15.4,0,0,0,.1,0,.2,0,.1,1.4,13.3-4.8,20.3-2.4,2.8-5.7,4.1-10,4.2h-.2c-4.3,0-7.5-1.4-10-4.2-6.1-6.9-4.8-20.2-4.8-20.3Z" fill="#f2f2f2" stroke-width="0"/>
    <path d="M114.8,100.1h0c0-.2,0-.4,0-.5-.1-3.8-.4-12.8-8.8-15.7,0,0-.1,0-.2,0-8.7-2.2-16-7.3-16.1-7.3-1.2-.8-2.8-.5-3.6.6-.8,1.2-.5,2.8.6,3.6.3.2,8,5.6,17.7,8.1,4.5,1.6,5,6.4,5.2,10.9,0,.2,0,.3,0,.5,0,1.7,0,4.4-.4,6-3.1,1.8-15.5,8-34.2,8s-31.1-6.2-34.2-8c-.3-1.6-.4-4.2-.4-6,0-.2,0-.3,0-.5.1-4.4.6-9.3,5.2-10.9,9.7-2.5,17.4-7.9,17.7-8.1,1.2-.8,1.5-2.5.6-3.6-.8-1.2-2.5-1.5-3.6-.6,0,0-7.3,5.1-16.1,7.3,0,0-.1,0-.2,0-8.4,2.9-8.7,11.9-8.8,15.7,0,.2,0,.3,0,.5h0c0,1.1,0,6.2,1,8.8.2.5.5.9,1,1.2.6.4,14.5,9.3,37.9,9.3s37.3-8.9,37.9-9.3c.4-.3.8-.7,1-1.2,1-2.6,1-7.8.9-8.8Z" fill="#f2f2f2" stroke-width="0"/>
  </g>
</svg>