<?xml version="1.0" encoding="UTF-8"?><svg id="a" xmlns="http://www.w3.org/2000/svg" xmlns:xlink="http://www.w3.org/1999/xlink" viewBox="0 0 1607.99 361.09"><defs><radialGradient id="b" cx="328.83" cy="98.93" fx="337.48" fy="98.93" r="219.14" gradientTransform="translate(495.37 -194.49) rotate(106.65) scale(1 .76)" gradientUnits="userSpaceOnUse"><stop offset=".88" stop-color="#fdfe05"/><stop offset="1" stop-color="#fdfe05" stop-opacity="0"/></radialGradient><radialGradient id="c" cx="202.38" cy="143.36" fx="211.02" fy="143.36" r="219.15" gradientTransform="translate(279.7 -62.45) rotate(87.59) scale(1 .6)" gradientUnits="userSpaceOnUse"><stop offset=".88" stop-color="#fdfe05"/><stop offset="1" stop-color="#fdfe05" stop-opacity="0"/></radialGradient><radialGradient id="d" cx="1595.34" cy="219.68" fx="1595.34" fy="219.68" r="158.52" gradientTransform="translate(1991.05 -1337.04) rotate(97.59) scale(1 .85)" gradientUnits="userSpaceOnUse"><stop offset=".88" stop-color="#fdfe05"/><stop offset="1" stop-color="#fdfe05" stop-opacity="0"/></radialGradient></defs><path d="M25.88,105.88c-1.58.47-2.81,2.2-2.73,3.84,0,0,3.43,68.74,4.92,105.16,1.03,25.15-18.51,85.04-16.89,109.82.23,3.51,14.16,14.46,14.16,14.46,1.3,1.02,3.7,1.73,5.34,1.57l57.69-5.77c1.64-.16,2.98-1.64,2.96-3.29l-.55-76.32c-.01-1.65,1.33-3.04,2.98-3.09l41.32-1.22c1.65-.05,2.99-1.44,2.98-3.09l-.3-44.89c-.01-1.65-1.13-3.77-2.48-4.72,0,0-17.19-12.02-21.05-11.9-9.53.31-30.81,13.88-30.81,13.88-1.39.89-2.52.26-2.5-1.39l.45-41.66c.02-1.65,1.38-3.09,3.03-3.2l48.82-3.34c1.65-.11,2.93-1.55,2.86-3.2l-2.02-45.04c-.07-1.65-1.25-3.75-2.62-4.68,0,0-17.56-11.92-20.99-11.9-17.16.11-84.57,19.95-84.57,19.95Z" fill="#9d7701" stroke-width="0"/><path d="M4.75,92.64c-1.64.13-2.92,1.59-2.84,3.24,0,0,3.43,68.74,4.92,105.16,1.74,42.51,4.22,123.14,4.22,123.14.05,1.65,1.43,2.85,3.07,2.68l53.01-5.7c1.64-.18,2.97-1.67,2.96-3.32l-.55-76.32c-.01-1.65,1.33-3.04,2.98-3.09l41.32-1.22c1.65-.05,2.99-1.44,2.98-3.09l-.3-44.89c-.01-1.65-1.37-2.96-3.02-2.9l-50.85,1.67c-1.65.05-2.98-1.25-2.97-2.9l.45-41.66c.02-1.65,1.38-3.09,3.03-3.2l48.82-3.34c1.65-.11,2.93-1.55,2.86-3.2l-2.02-45.04c-.07-1.65-1.48-2.93-3.13-2.85,0,0-36.89,1.86-57.35,3.23-17.12,1.14-47.58,3.6-47.58,3.6Z" fill="#edce00" stroke-width="0"/><path d="M305.59,172.11c-22.6-32.33-63.05-90.13-65.32-92.86-2.92-3.52-16.57-15.16-18.74-15.33-1.77-.14-16.36,102.13-24.54,123.16-9.86,25.33-60.25,76.18-62.8,102.44-.07.71,9.02,7.03,19.23,14.32,11.52,8.24,47.02,25.9,47.02,25.9,1.48.73,3.05.04,3.49-1.55,0,0,3.7-13.27,6.68-21.96,2.62-7.64,7.05-18.66,7.05-18.66.62-1.53,2.4-3.2,3.97-3.71,0,0,19.4-6.31,30.85-10.31,12.77-4.46,34.3-12.56,34.3-12.56,1.54-.58,2.8.29,2.8,1.94,0,0-.04,12.95,4.07,19.04,4.85,7.19,20.25,16.26,20.25,16.26,1.42.84,3.46.49,4.53-.76l40.03-47.17c1.07-1.26,1.14-3.38.17-4.71,0,0-34.71-47.28-53.03-73.5ZM232.55,231.49c-1.58.48-2.52-.43-2.09-2.02l13.76-51.06c.43-1.59,1.59-1.81,2.57-.49,0,0,8.88,11.95,14.21,20.74,4.41,7.27,9.88,18.09,9.88,18.09.74,1.47.06,3.07-1.52,3.55l-36.81,11.19Z" fill="#9d7701" stroke-width="0"/><path d="M285.02,157.64c-22.6-32.33-62.35-92.81-62.35-92.81-.91-1.38-2.16-1.26-2.79.27,0,0-28.75,69.73-43.45,107.52-15.42,39.63-42.55,113.95-42.55,113.95-.57,1.55.16,3.47,1.6,4.26l44.44,24.35c1.45.79,2.99.14,3.44-1.45,0,0,3.7-13.27,6.68-21.96,2.62-7.64,7.05-18.66,7.05-18.66.62-1.53,2.4-3.2,3.97-3.71,0,0,19.4-6.31,30.85-10.31,12.77-4.46,34.3-12.56,34.3-12.56,1.54-.58,3.56.06,4.49,1.43l23.54,34.86c.92,1.37,2.55,1.46,3.62.2l40.03-47.17c1.07-1.26,1.14-3.38.17-4.71,0,0-34.71-47.28-53.03-73.5ZM211.97,217.02c-1.58.48-2.52-.43-2.09-2.02l13.76-51.06c.43-1.59,1.59-1.81,2.57-.49,0,0,8.88,11.95,14.21,20.74,4.41,7.27,9.88,18.09,9.88,18.09.74,1.47.06,3.07-1.52,3.55l-36.81,11.19Z" fill="#edce00" stroke-width="0"/><path d="M364.06,266c-1.65-.11-4.12-.93-5.51-1.83,0,0-17.51-11.43-15.17-16.04,11.53-22.72,42.02-73.34,48.61-98.66,6.27-24.06,6.71-116.39,7.6-116.87,1.3-.7,15.42,10.84,17.95,13.87,9.62,11.54,24.55,32.14,35.73,48.37,11.27,16.36,32.07,46.22,32.07,46.22.94,1.35,2.29,1.24,3-.25,0,0,14.41-30.3,22.2-47.33,6.31-13.8,5.38-75.54,6.66-75.68,2.44-.27,16.41,9.78,19.33,14.26,13.22,20.23,32.5,56.13,47.96,85.77,12.95,24.83,35.94,70.85,35.94,70.85.74,1.48.22,3.43-1.16,4.35l-43.4,29.02c-1.39.89-3.62.83-4.96-.14,0,0-13.76-9.92-16.27-15.27-6.71-14.28-19.5-68.03-19.5-68.03-.38-1.61-1.27-1.7-1.97-.21l-43.89,94.8c-.7,1.49-2.62,2.53-4.25,2.31,0,0-6.8-.93-18.96-16.61-8.72-11.25-32.32-55.05-32.32-55.05-.78-1.45-1.69-1.32-2.02.3,0,0-7.92,38.79-11.66,60.89-2.53,14.99-6.31,41.05-6.31,41.05-.24,1.63-1.78,2.88-3.43,2.78l-46.28-2.88Z" fill="#9d7701" stroke-width="0"/><path d="M345.37,251.01c-1.65-.1-2.68-1.49-2.29-3.09,0,0,17.84-74.19,28.15-113.76,9.15-35.12,27.28-100.26,27.28-100.26.44-1.59,1.56-1.77,2.49-.41,0,0,20.32,29.81,31.5,46.03,11.27,16.36,32.07,46.22,32.07,46.22.94,1.35,2.29,1.24,3-.25,0,0,14.41-30.3,22.2-47.33,9.58-20.95,26.21-59.21,26.21-59.21.66-1.51,1.85-1.57,2.64-.12,0,0,29.65,54.03,45.11,83.67,12.95,24.83,35.94,70.85,35.94,70.85.74,1.48.25,3.48-1.09,4.45l-40.61,29.45c-1.34.97-2.97.53-3.64-.98,0,0-12.58-28.44-20.21-44.53-6.76-14.25-19.08-38.68-19.08-38.68-.74-1.47-1.9-1.45-2.57.06l-43,96.14c-.67,1.51-2.01,1.64-2.97.3,0,0-18.54-25.96-29.41-40.45-8.54-11.39-23.69-30.83-23.69-30.83-1.01-1.3-2.11-1.04-2.44.57,0,0-7.92,38.79-11.66,60.89-2.53,14.99-6.31,41.05-6.31,41.05-.24,1.63-1.78,2.89-3.43,2.8l-44.2-2.57Z" fill="#edce00" stroke-width="0"/><path d="M644.47,17.4c-1.29,1.02-2.47,3.21-2.61,4.85,0,0-13.15,152.03-13.72,157.4-1.12,10.4,18.74,19.47,18.74,19.47,1.5.69,4.08,1.25,5.73,1.25h49.49c1.65,0,2.93-1.35,2.84-3,0,0-3.16-57.77-4.6-88.58-1.42-30.33-3.63-87.22-3.63-87.22-.06-1.65-1.04-3.98-2.18-5.18,0,0-13.86-14.68-23.47-14.11-8.12.48-26.58,15.11-26.58,15.11Z" fill="#9d7701" stroke-width="0"/><path d="M623.68,2.88c-1.65.02-3.03,1.39-3.06,3.04,0,0-.72,38.46,3.12,89.26,2.83,37.43,4.33,85.85,4.33,85.85.05,1.65,1.44,3,3.09,3h49.49c1.65,0,2.93-1.35,2.84-3,0,0-3.16-57.77-4.6-88.58-1.42-30.33-3.63-87.22-3.63-87.22-.06-1.65-1.47-2.98-3.12-2.96l-48.47.61Z" fill="#edce00" stroke-width="0"/><path d="M754.6,17.17c-1.32.99-2.37,3.14-2.33,4.79,0,0,1.65,66.7,2.69,99.46.61,19.1-20.9,45.94-20.69,60.24.14,10.03,16.26,14.21,22.98,15.87,14.13,3.49,47.12,11.24,62.72,15.01,13.76,3.32,51.27,14.58,51.27,14.58,1.58.47,2.89-.49,2.92-2.14l.59-39.62c.02-1.65-1.05-3.8-2.38-4.77,0,0-17.33-12.65-24.41-14.86-8.72-2.72-31.46-.36-31.46-.36-1.64.17-3.01-1.04-3.05-2.69,0,0-1.04-45.34-1.63-69.51-.55-22.35-2.42-63.56-2.42-63.56-.07-1.65-1.22-3.8-2.54-4.79,0,0-17.28-12.85-23.93-14.27-15.13-3.23-28.32,6.61-28.32,6.61Z" fill="#9d7701" stroke-width="0"/><path d="M731.97,3.6c-1.65-.05-2.97,1.27-2.92,2.92,0,0,1.65,66.7,2.69,99.46s2.68,76.83,2.68,76.83c.06,1.65,1.45,3.17,3.09,3.38,0,0,32.66,4.19,52.77,9.07,22.76,5.52,57.75,16.39,57.75,16.39,1.58.49,2.89-.46,2.91-2.11l.59-39.62c.02-1.65-1.24-3.42-2.8-3.94,0,0-20.04-6.63-32.9-9.95-8.84-2.29-22.6-5.17-22.6-5.17-1.61-.34-2.97-1.97-3-3.62,0,0-1.04-45.34-1.63-69.51-.55-22.35-2.42-63.56-2.42-63.56-.07-1.65-1.46-3.27-3.07-3.6,0,0-15.43-3.19-25.01-4.53-15.32-2.14-26.11-2.43-26.11-2.43Z" fill="#edce00" stroke-width="0"/><path d="M902.42,45.3c-1.61.38-2.88,2.03-2.82,3.68,0,0,1.34,40.42,4.21,88.15,1.37,22.73-20.9,60.34-19.58,78.3.92,12.5,5.58,12.55,22.32,18.48,14.7,5.21,38.11,11.47,60.07,16.84-1.73-30.24-4.01-83.3-4.01-83.3-.07-1.65-.17-4.35-.23-6l-3.34-103.02c-.04-1.65-1.18-3.79-2.52-4.75,0,0-19.31-13.85-22.55-14.64-.08-.02-.28.08-.28.08-8.76.92-31.28,6.18-31.28,6.18Z" fill="#9d7701" stroke-width="0"/><path d="M880.09,30.45c-1.63-.26-2.92.88-2.86,2.53,0,0,1.34,40.42,4.21,88.15,2.26,37.47,2.54,94.53,2.54,94.53,0,1.65,1.31,3.36,2.9,3.81,0,0,35.41,9.91,57.37,15.28-1.73-30.24-4.01-83.3-4.01-83.3-.07-1.65-.17-4.35-.23-6l-3.34-103.02c-.04-1.65-1.41-3.21-3.04-3.47l-53.54-8.51Z" fill="#edce00" stroke-width="0"/><path d="M1150.39,188.76c-22.22-42.25-61.26-108.03-69.14-117.72-7.47-9.19-15.27-14.33-18.82-15.16,0,0,0,0,0,0-3.47,9-15.28,78.24-25.05,95.77-15.2,27.28-44.93,80.78-44.93,80.78-.8,1.44-.62,3.68.39,4.98,0,0,12.66,16.13,18.95,22.57,10.29,10.53,25.32,18.59,25.32,18.59,1.45.78,3.28.23,4.06-1.23l14.2-28.32c.78-1.46,2.74-2.4,4.36-2.09,0,0,20.21,3.8,32.8,6.34,14.81,3,33.45,5.26,33.45,5.26,1.64.2,2.91,1.71,2.83,3.36,0,0-1.11,23.09,3.59,32.5,4.03,8.07,20.05,15.65,20.05,15.65,1.49.71,3.88.62,5.32-.2l39.04-22.22c1.43-.82,2.01-2.7,1.28-4.18,0,0-30.3-61.59-47.7-94.67ZM1085.71,209.06c-6.33-1.22-13.51-3.73-13.51-3.73-1.56-.54-2.3-2.23-1.65-3.75l16.03-37.5c.65-1.52,1.73-1.52,2.39-.02l19.4,43.79c.67,1.51-.13,2.77-1.78,2.8,0,0-11.55.22-20.87-1.59Z" fill="#9d7701" stroke-width="0"/><path d="M1129.27,175.17c-22.22-42.25-65.58-118.25-65.58-118.25-.82-1.43-2.13-1.42-2.92.03,0,0-28.85,52.99-44.52,81.11-15.2,27.28-44.93,80.78-44.93,80.78-.8,1.44-.43,3.5.82,4.58,0,0,13.58,11.67,19.87,18.11,10.29,10.53,24.37,22.89,24.37,22.89,1.24,1.09,2.89.79,3.67-.67l14.2-28.32c.78-1.46,2.74-2.4,4.36-2.09,0,0,20.21,3.8,32.8,6.34,14.81,3,33.45,5.26,33.45,5.26,1.64.2,3.58,1.57,4.32,3.04l23.53,47.06c.74,1.48,2.51,2.02,3.95,1.2l39.04-22.22c1.43-.82,2.01-2.7,1.28-4.18,0,0-30.3-61.59-47.7-94.67ZM1064.59,195.47c-6.33-1.22-13.51-3.73-13.51-3.73-1.56-.54-2.3-2.23-1.65-3.75l16.03-37.5c.65-1.52,1.73-1.52,2.39-.02l19.4,43.79c.67,1.51-.13,2.77-1.78,2.8,0,0-11.55.22-20.87-1.59Z" fill="#edce00" stroke-width="0"/><path d="M1378.42,164.96c-4.8-8.44-17.19-32.63-57.26-50.5-21.84-9.74-100.77-13.69-100.77-13.69-1.65-.08-2.95,1.2-2.88,2.85,0,0,2.63,69.84,3.97,106.28.87,23.56-17.36,69.61-16.45,94.76.31,8.64,25.04,18.75,25.04,18.75,1.53.62,4.1,1.41,5.71,1.75,0,0,18.49,3.84,39.48,3.21,12.57-.38,28.13-.84,45.96-8.17,36.74-15.1,53.46-47.17,57.19-54.81,10.51-21.54,11.31-40.64,11.57-49.02.38-12.08.01-31.03-11.57-51.4ZM1296.55,274.41c-6.95,1.99-14.38,1.12-14.38,1.12-1.64-.19-3.03-1.7-3.09-3.35l-3.87-108.39c-.06-1.65,1.24-3.03,2.89-3.06,0,0,16.55-.36,29.94,8.49,22.19,14.67,23.53,41.23,23.74,45.45,1.25,24.64-12.57,53.24-35.23,59.74Z" fill="#9d7701" stroke-width="0"/><path d="M1358,150.32c-4.8-8.44-13.61-23.61-41.53-38.47-21.11-11.23-116.52-25.43-116.52-25.43-1.63-.24-2.92.91-2.85,2.56,0,0,2.63,69.84,3.97,106.28,1.38,37.46,3.98,109.34,3.98,109.34.06,1.65,1.42,3.31,3.03,3.69,0,0,25.79,6.07,46.78,5.44,12.57-.38,28.13-.84,45.96-8.17,36.74-15.1,53.46-47.17,57.19-54.81,10.51-21.54,11.31-40.64,11.57-49.02.38-12.08.01-31.03-11.57-51.4ZM1276.12,259.77c-6.95,1.99-14.38,1.12-14.38,1.12-1.64-.19-3.03-1.7-3.09-3.35l-3.87-108.39c-.06-1.65,1.24-3.03,2.89-3.06,0,0,16.55-.36,29.94,8.49,22.19,14.67,23.53,41.23,23.74,45.45,1.25,24.64-12.57,53.24-35.23,59.74Z" fill="#edce00" stroke-width="0"/><path d="M1546.25,207.27c-22.59-37.3-59.36-95.54-59.36-95.54-.88-1.4-2.36-3.66-3.28-5.02,0,0-14.3-21.16-21.8-22.38,0,0-.02,0-.02,0-.17,1.02-10.89,89.78-23.79,121.91-15.91,39.6-45.89,116.31-45.89,116.31-.6,1.54,0,3.59,1.33,4.57,0,0,11.4,8.35,18.52,13.42,9.62,6.86,26.12,18.21,26.12,18.21,1.36.94,2.84.4,3.28-1.19l11.14-39.67c.45-1.59,2.15-3.03,3.79-3.21,0,0,23.21-2.52,37.87-5.29,13.95-2.64,35.4-8.41,35.4-8.41,1.59-.43,2.95.57,3.02,2.22,0,0,.92,23.11,4.66,30.14,5.19,9.75,19.02,15.72,19.02,15.72,1.51.65,3.74.27,4.94-.86l44.13-41.34c1.2-1.13,1.46-3.19.57-4.58,0,0-39.22-61.26-59.66-95.01ZM1490.19,261.9c-7.29.5-16.41-.07-16.41-.07-1.65-.1-2.6-1.48-2.11-3.06l15.09-49.16c.48-1.58,1.44-1.64,2.12-.14,0,0,7.3,16.11,12.55,26.12,4.14,7.89,11,19.62,11,19.62.83,1.42.2,2.9-1.4,3.29,0,0-11.53,2.75-20.83,3.39Z" fill="#9d7701" stroke-width="0"/><path d="M1525.57,192.53c-22.59-37.3-62.35-107.18-62.35-107.18-.82-1.43-2-1.36-2.63.17,0,0-28.69,69.66-43.28,105.99-15.91,39.6-45.89,116.31-45.89,116.31-.6,1.54,0,3.59,1.33,4.57,0,0,11.4,8.35,18.52,13.42,9.62,6.86,26.12,18.21,26.12,18.21,1.36.94,2.84.4,3.28-1.19l11.14-39.67c.45-1.59,2.15-3.03,3.79-3.21,0,0,23.21-2.52,37.87-5.29,13.95-2.64,35.4-8.41,35.4-8.41,1.59-.43,3.54.41,4.32,1.86,0,0,6.07,11.27,9.81,18.3,5.19,9.75,13.93,26.45,13.93,26.45.77,1.46,2.38,1.74,3.58.61l44.13-41.34c1.2-1.13,1.46-3.19.57-4.58,0,0-39.22-61.26-59.66-95.01ZM1469.08,246.92c-7.29.5-16.41-.07-16.41-.07-1.65-.1-2.6-1.48-2.11-3.06l15.09-49.16c.48-1.58,1.44-1.64,2.12-.14,0,0,7.3,16.11,12.55,26.12,4.14,7.89,11,19.62,11,19.62.83,1.42.2,2.9-1.4,3.29,0,0-11.53,2.75-20.83,3.39Z" fill="#edce00" stroke-width="0"/><path d="M52.34,89.05c20.46-1.37,57.35-3.23,57.35-3.23,1.65-.08,3.06,1.2,3.13,2.85l2.02,45.04c.07,1.65-1.21,3.09-2.86,3.2l-48.82,3.34c-1.65.11-3.01,1.55-3.03,3.2l-.45,41.66c-.02,1.65,1.32,2.96,2.97,2.9l50.85-1.67c1.65-.05,3.01,1.25,3.02,2.9l.3,44.89c.01,1.65-1.33,3.04-2.98,3.09l-41.32,1.22c-1.65.05-2.99,1.44-2.98,3.09l.55,76.32c.01,1.65-1.32,3.14-2.96,3.32l-53.01,5.7c-1.64.18-3.02-1.03-3.07-2.68,0,0-2.48-80.63-4.22-123.14-1.49-36.41-4.92-105.16-4.92-105.16-.08-1.65,1.2-3.1,2.84-3.24,0,0,30.46-2.45,47.58-3.6ZM338.05,231.14c.98,1.33.9,3.45-.17,4.71l-40.03,47.17c-1.07,1.26-2.7,1.17-3.62-.2l-23.54-34.86c-.92-1.37-2.94-2.01-4.49-1.43,0,0-21.53,8.1-34.3,12.56-11.45,4-30.85,10.31-30.85,10.31-1.57.51-3.36,2.18-3.97,3.71,0,0-4.43,11.03-7.05,18.66-2.98,8.7-6.68,21.96-6.68,21.96-.44,1.59-1.99,2.24-3.44,1.45l-44.44-24.35c-1.45-.79-2.17-2.71-1.6-4.26,0,0,27.13-74.32,42.55-113.95,14.7-37.79,43.45-107.52,43.45-107.52.63-1.53,1.89-1.65,2.79-.27,0,0,39.76,60.49,62.35,92.81,18.33,26.22,53.03,73.5,53.03,73.5ZM248.78,205.83c1.58-.48,2.26-2.08,1.52-3.55,0,0-5.47-10.82-9.88-18.09-5.33-8.79-14.21-20.74-14.21-20.74-.98-1.32-2.14-1.1-2.57.49l-13.76,51.06c-.43,1.59.51,2.5,2.09,2.02l36.81-11.19ZM389.57,253.57c1.65.1,3.19-1.16,3.43-2.8,0,0,3.78-26.07,6.31-41.05,3.73-22.1,11.66-60.89,11.66-60.89.33-1.62,1.43-1.87,2.44-.57,0,0,15.15,19.44,23.69,30.83,10.87,14.49,29.41,40.45,29.41,40.45.96,1.34,2.29,1.21,2.97-.3l43-96.14c.67-1.51,1.83-1.53,2.57-.06,0,0,12.31,24.43,19.08,38.68,7.64,16.09,20.21,44.53,20.21,44.53.67,1.51,2.31,1.95,3.64.98l40.61-29.45c1.34-.97,1.83-2.97,1.09-4.45,0,0-22.98-46.02-35.94-70.85-15.46-29.64-45.11-83.67-45.11-83.67-.79-1.45-1.98-1.39-2.64.12,0,0-16.63,38.25-26.21,59.21-7.79,17.04-22.2,47.33-22.2,47.33-.71,1.49-2.06,1.6-3,.25,0,0-20.8-29.86-32.07-46.22-11.18-16.23-31.5-46.03-31.5-46.03-.93-1.36-2.05-1.18-2.49.41,0,0-18.13,65.14-27.28,100.26-10.31,39.58-28.15,113.76-28.15,113.76-.39,1.6.65,3,2.29,3.09l44.2,2.57ZM623.68,2.88c-1.65.02-3.03,1.39-3.06,3.04,0,0-.72,38.46,3.12,89.26,2.83,37.43,4.33,85.85,4.33,85.85.05,1.65,1.44,3,3.09,3h49.49c1.65,0,2.93-1.35,2.84-3,0,0-3.16-57.77-4.6-88.58-1.42-30.33-3.63-87.22-3.63-87.22-.06-1.65-1.47-2.98-3.12-2.96l-48.47.61ZM731.97,3.6c-1.65-.05-2.97,1.27-2.92,2.92,0,0,1.65,66.7,2.69,99.46s2.68,76.83,2.68,76.83c.06,1.65,1.45,3.17,3.09,3.38,0,0,32.66,4.19,52.77,9.07,22.76,5.52,57.75,16.39,57.75,16.39,1.58.49,2.89-.46,2.91-2.11l.59-39.62c.02-1.65-1.24-3.42-2.8-3.94,0,0-20.04-6.63-32.9-9.95-8.84-2.29-22.6-5.17-22.6-5.17-1.61-.34-2.97-1.97-3-3.62,0,0-1.04-45.34-1.63-69.51-.55-22.35-2.42-63.56-2.42-63.56-.07-1.65-1.46-3.27-3.07-3.6,0,0-15.43-3.19-25.01-4.53-15.32-2.14-26.11-2.43-26.11-2.43ZM880.09,30.45c-1.63-.26-2.92.88-2.86,2.53,0,0,1.34,40.42,4.21,88.15,2.26,37.47,2.54,94.53,2.54,94.53,0,1.65,1.31,3.36,2.9,3.81,0,0,35.41,9.91,57.37,15.28-1.73-30.24-4.01-83.3-4.01-83.3-.07-1.65-.17-4.35-.23-6l-3.34-103.02c-.04-1.65-1.41-3.21-3.04-3.47l-53.54-8.51ZM1176.97,269.84c.73,1.48.15,3.36-1.28,4.18l-39.04,22.22c-1.43.82-3.21.28-3.95-1.2l-23.53-47.06c-.74-1.48-2.68-2.85-4.32-3.04,0,0-18.63-2.26-33.45-5.26-12.58-2.54-32.8-6.34-32.8-6.34-1.62-.3-3.58.64-4.36,2.09l-14.2,28.32c-.78,1.46-2.43,1.76-3.67.67,0,0-14.07-12.36-24.37-22.89-6.29-6.44-19.87-18.11-19.87-18.11-1.25-1.08-1.62-3.14-.82-4.58,0,0,29.73-53.5,44.93-80.78,15.67-28.12,44.52-81.11,44.52-81.11.79-1.45,2.1-1.46,2.92-.03,0,0,43.36,75.99,65.58,118.25,17.4,33.08,47.7,94.67,47.7,94.67ZM1085.46,197.06c1.65-.03,2.45-1.29,1.78-2.8l-19.4-43.79c-.67-1.51-1.75-1.5-2.39.02l-16.03,37.5c-.65,1.52.1,3.2,1.65,3.75,0,0,7.18,2.51,13.51,3.73,9.32,1.8,20.87,1.59,20.87,1.59ZM1369.57,201.73c-.26,8.38-1.06,27.48-11.57,49.02-3.73,7.64-20.45,39.71-57.19,54.81-17.83,7.33-33.39,7.79-45.96,8.17-20.99.63-46.78-5.44-46.78-5.44-1.61-.38-2.97-2.04-3.03-3.69,0,0-2.6-71.89-3.98-109.34-1.34-36.44-3.97-106.28-3.97-106.28-.06-1.65,1.22-2.8,2.85-2.56,0,0,95.42,14.2,116.52,25.43,27.92,14.86,36.73,30.02,41.53,38.47,11.59,20.37,11.95,39.32,11.57,51.4ZM1311.36,200.02c-.21-4.22-1.55-30.77-23.74-45.45-13.38-8.85-29.94-8.49-29.94-8.49-1.65.04-2.95,1.41-2.89,3.06l3.87,108.39c.06,1.65,1.45,3.16,3.09,3.35,0,0,7.43.88,14.38-1.12,22.66-6.5,36.48-35.1,35.23-59.74ZM1585.23,287.54c.89,1.39.63,3.45-.57,4.58l-44.13,41.34c-1.2,1.13-2.82.85-3.58-.61,0,0-8.74-16.7-13.93-26.45-3.74-7.03-9.81-18.3-9.81-18.3-.78-1.45-2.73-2.29-4.32-1.86,0,0-21.45,5.77-35.4,8.41-14.66,2.78-37.87,5.29-37.87,5.29-1.64.18-3.35,1.62-3.79,3.21l-11.14,39.67c-.45,1.59-1.92,2.12-3.28,1.19,0,0-16.5-11.35-26.12-18.21-7.11-5.07-18.52-13.42-18.52-13.42-1.33-.97-1.93-3.03-1.33-4.57,0,0,29.98-76.71,45.89-116.31,14.6-36.34,43.28-105.99,43.28-105.99.63-1.53,1.81-1.6,2.63-.17,0,0,39.75,69.88,62.35,107.18,20.44,33.74,59.66,95.01,59.66,95.01ZM1489.91,243.53c1.6-.38,2.24-1.86,1.4-3.29,0,0-6.86-11.74-11-19.62-5.25-10.01-12.55-26.12-12.55-26.12-.68-1.5-1.63-1.44-2.12.14l-15.09,49.16c-.48,1.58.47,2.95,2.11,3.06,0,0,9.12.57,16.41.07,9.3-.64,20.83-3.39,20.83-3.39Z" fill="url(#b)" stroke-width="0"/><path d="M52.34,89.05c20.46-1.37,57.35-3.23,57.35-3.23,1.65-.08,3.06,1.2,3.13,2.85l2.02,45.04c.07,1.65-1.21,3.09-2.86,3.2l-48.82,3.34c-1.65.11-3.01,1.55-3.03,3.2l-.45,41.66c-.02,1.65,1.32,2.96,2.97,2.9l50.85-1.67c1.65-.05,3.01,1.25,3.02,2.9l.3,44.89c.01,1.65-1.33,3.04-2.98,3.09l-41.32,1.22c-1.65.05-2.99,1.44-2.98,3.09l.55,76.32c.01,1.65-1.32,3.14-2.96,3.32l-53.01,5.7c-1.64.18-3.02-1.03-3.07-2.68,0,0-2.48-80.63-4.22-123.14-1.49-36.41-4.92-105.16-4.92-105.16-.08-1.65,1.2-3.1,2.84-3.24,0,0,30.46-2.45,47.58-3.6ZM338.05,231.14c.98,1.33.9,3.45-.17,4.71l-40.03,47.17c-1.07,1.26-2.7,1.17-3.62-.2l-23.54-34.86c-.92-1.37-2.94-2.01-4.49-1.43,0,0-21.53,8.1-34.3,12.56-11.45,4-30.85,10.31-30.85,10.31-1.57.51-3.36,2.18-3.97,3.71,0,0-4.43,11.03-7.05,18.66-2.98,8.7-6.68,21.96-6.68,21.96-.44,1.59-1.99,2.24-3.44,1.45l-44.44-24.35c-1.45-.79-2.17-2.71-1.6-4.26,0,0,27.13-74.32,42.55-113.95,14.7-37.79,43.45-107.52,43.45-107.52.63-1.53,1.89-1.65,2.79-.27,0,0,39.76,60.49,62.35,92.81,18.33,26.22,53.03,73.5,53.03,73.5ZM248.78,205.83c1.58-.48,2.26-2.08,1.52-3.55,0,0-5.47-10.82-9.88-18.09-5.33-8.79-14.21-20.74-14.21-20.74-.98-1.32-2.14-1.1-2.57.49l-13.76,51.06c-.43,1.59.51,2.5,2.09,2.02l36.81-11.19ZM389.57,253.57c1.65.1,3.19-1.16,3.43-2.8,0,0,3.78-26.07,6.31-41.05,3.73-22.1,11.66-60.89,11.66-60.89.33-1.62,1.43-1.87,2.44-.57,0,0,15.15,19.44,23.69,30.83,10.87,14.49,29.41,40.45,29.41,40.45.96,1.34,2.29,1.21,2.97-.3l43-96.14c.67-1.51,1.83-1.53,2.57-.06,0,0,12.31,24.43,19.08,38.68,7.64,16.09,20.21,44.53,20.21,44.53.67,1.51,2.31,1.95,3.64.98l40.61-29.45c1.34-.97,1.83-2.97,1.09-4.45,0,0-22.98-46.02-35.94-70.85-15.46-29.64-45.11-83.67-45.11-83.67-.79-1.45-1.98-1.39-2.64.12,0,0-16.63,38.25-26.21,59.21-7.79,17.04-22.2,47.33-22.2,47.33-.71,1.49-2.06,1.6-3,.25,0,0-20.8-29.86-32.07-46.22-11.18-16.23-31.5-46.03-31.5-46.03-.93-1.36-2.05-1.18-2.49.41,0,0-18.13,65.14-27.28,100.26-10.31,39.58-28.15,113.76-28.15,113.76-.39,1.6.65,3,2.29,3.09l44.2,2.57ZM623.68,2.88c-1.65.02-3.03,1.39-3.06,3.04,0,0-.72,38.46,3.12,89.26,2.83,37.43,4.33,85.85,4.33,85.85.05,1.65,1.44,3,3.09,3h49.49c1.65,0,2.93-1.35,2.84-3,0,0-3.16-57.77-4.6-88.58-1.42-30.33-3.63-87.22-3.63-87.22-.06-1.65-1.47-2.98-3.12-2.96l-48.47.61ZM731.97,3.6c-1.65-.05-2.97,1.27-2.92,2.92,0,0,1.65,66.7,2.69,99.46s2.68,76.83,2.68,76.83c.06,1.65,1.45,3.17,3.09,3.38,0,0,32.66,4.19,52.77,9.07,22.76,5.52,57.75,16.39,57.75,16.39,1.58.49,2.89-.46,2.91-2.11l.59-39.62c.02-1.65-1.24-3.42-2.8-3.94,0,0-20.04-6.63-32.9-9.95-8.84-2.29-22.6-5.17-22.6-5.17-1.61-.34-2.97-1.97-3-3.62,0,0-1.04-45.34-1.63-69.51-.55-22.35-2.42-63.56-2.42-63.56-.07-1.65-1.46-3.27-3.07-3.6,0,0-15.43-3.19-25.01-4.53-15.32-2.14-26.11-2.43-26.11-2.43ZM880.09,30.45c-1.63-.26-2.92.88-2.86,2.53,0,0,1.34,40.42,4.21,88.15,2.26,37.47,2.54,94.53,2.54,94.53,0,1.65,1.31,3.36,2.9,3.81,0,0,35.41,9.91,57.37,15.28-1.73-30.24-4.01-83.3-4.01-83.3-.07-1.65-.17-4.35-.23-6l-3.34-103.02c-.04-1.65-1.41-3.21-3.04-3.47l-53.54-8.51ZM1176.97,269.84c.73,1.48.15,3.36-1.28,4.18l-39.04,22.22c-1.43.82-3.21.28-3.95-1.2l-23.53-47.06c-.74-1.48-2.68-2.85-4.32-3.04,0,0-18.63-2.26-33.45-5.26-12.58-2.54-32.8-6.34-32.8-6.34-1.62-.3-3.58.64-4.36,2.09l-14.2,28.32c-.78,1.46-2.43,1.76-3.67.67,0,0-14.07-12.36-24.37-22.89-6.29-6.44-19.87-18.11-19.87-18.11-1.25-1.08-1.62-3.14-.82-4.58,0,0,29.73-53.5,44.93-80.78,15.67-28.12,44.52-81.11,44.52-81.11.79-1.45,2.1-1.46,2.92-.03,0,0,43.36,75.99,65.58,118.25,17.4,33.08,47.7,94.67,47.7,94.67ZM1085.46,197.06c1.65-.03,2.45-1.29,1.78-2.8l-19.4-43.79c-.67-1.51-1.75-1.5-2.39.02l-16.03,37.5c-.65,1.52.1,3.2,1.65,3.75,0,0,7.18,2.51,13.51,3.73,9.32,1.8,20.87,1.59,20.87,1.59ZM1369.57,201.73c-.26,8.38-1.06,27.48-11.57,49.02-3.73,7.64-20.45,39.71-57.19,54.81-17.83,7.33-33.39,7.79-45.96,8.17-20.99.63-46.78-5.44-46.78-5.44-1.61-.38-2.97-2.04-3.03-3.69,0,0-2.6-71.89-3.98-109.34-1.34-36.44-3.97-106.28-3.97-106.28-.06-1.65,1.22-2.8,2.85-2.56,0,0,95.42,14.2,116.52,25.43,27.92,14.86,36.73,30.02,41.53,38.47,11.59,20.37,11.95,39.32,11.57,51.4ZM1311.36,200.02c-.21-4.22-1.55-30.77-23.74-45.45-13.38-8.85-29.94-8.49-29.94-8.49-1.65.04-2.95,1.41-2.89,3.06l3.87,108.39c.06,1.65,1.45,3.16,3.09,3.35,0,0,7.43.88,14.38-1.12,22.66-6.5,36.48-35.1,35.23-59.74ZM1585.23,287.54c.89,1.39.63,3.45-.57,4.58l-44.13,41.34c-1.2,1.13-2.82.85-3.58-.61,0,0-8.74-16.7-13.93-26.45-3.74-7.03-9.81-18.3-9.81-18.3-.78-1.45-2.73-2.29-4.32-1.86,0,0-21.45,5.77-35.4,8.41-14.66,2.78-37.87,5.29-37.87,5.29-1.64.18-3.35,1.62-3.79,3.21l-11.14,39.67c-.45,1.59-1.92,2.12-3.28,1.19,0,0-16.5-11.35-26.12-18.21-7.11-5.07-18.52-13.42-18.52-13.42-1.33-.97-1.93-3.03-1.33-4.57,0,0,29.98-76.71,45.89-116.31,14.6-36.34,43.28-105.99,43.28-105.99.63-1.53,1.81-1.6,2.63-.17,0,0,39.75,69.88,62.35,107.18,20.44,33.74,59.66,95.01,59.66,95.01ZM1489.91,243.53c1.6-.38,2.24-1.86,1.4-3.29,0,0-6.86-11.74-11-19.62-5.25-10.01-12.55-26.12-12.55-26.12-.68-1.5-1.63-1.44-2.12.14l-15.09,49.16c-.48,1.58.47,2.95,2.11,3.06,0,0,9.12.57,16.41.07,9.3-.64,20.83-3.39,20.83-3.39Z" fill="url(#c)" stroke-width="0"/><path d="M52.34,89.05c20.46-1.37,57.35-3.23,57.35-3.23,1.65-.08,3.06,1.2,3.13,2.85l2.02,45.04c.07,1.65-1.21,3.09-2.86,3.2l-48.82,3.34c-1.65.11-3.01,1.55-3.03,3.2l-.45,41.66c-.02,1.65,1.32,2.96,2.97,2.9l50.85-1.67c1.65-.05,3.01,1.25,3.02,2.9l.3,44.89c.01,1.65-1.33,3.04-2.98,3.09l-41.32,1.22c-1.65.05-2.99,1.44-2.98,3.09l.55,76.32c.01,1.65-1.32,3.14-2.96,3.32l-53.01,5.7c-1.64.18-3.02-1.03-3.07-2.68,0,0-2.48-80.63-4.22-123.14-1.49-36.41-4.92-105.16-4.92-105.16-.08-1.65,1.2-3.1,2.84-3.24,0,0,30.46-2.45,47.58-3.6ZM338.05,231.14c.98,1.33.9,3.45-.17,4.71l-40.03,47.17c-1.07,1.26-2.7,1.17-3.62-.2l-23.54-34.86c-.92-1.37-2.94-2.01-4.49-1.43,0,0-21.53,8.1-34.3,12.56-11.45,4-30.85,10.31-30.85,10.31-1.57.51-3.36,2.18-3.97,3.71,0,0-4.43,11.03-7.05,18.66-2.98,8.7-6.68,21.96-6.68,21.96-.44,1.59-1.99,2.24-3.44,1.45l-44.44-24.35c-1.45-.79-2.17-2.71-1.6-4.26,0,0,27.13-74.32,42.55-113.95,14.7-37.79,43.45-107.52,43.45-107.52.63-1.53,1.89-1.65,2.79-.27,0,0,39.76,60.49,62.35,92.81,18.33,26.22,53.03,73.5,53.03,73.5ZM248.78,205.83c1.58-.48,2.26-2.08,1.52-3.55,0,0-5.47-10.82-9.88-18.09-5.33-8.79-14.21-20.74-14.21-20.74-.98-1.32-2.14-1.1-2.57.49l-13.76,51.06c-.43,1.59.51,2.5,2.09,2.02l36.81-11.19ZM389.57,253.57c1.65.1,3.19-1.16,3.43-2.8,0,0,3.78-26.07,6.31-41.05,3.73-22.1,11.66-60.89,11.66-60.89.33-1.62,1.43-1.87,2.44-.57,0,0,15.15,19.44,23.69,30.83,10.87,14.49,29.41,40.45,29.41,40.45.96,1.34,2.29,1.21,2.97-.3l43-96.14c.67-1.51,1.83-1.53,2.57-.06,0,0,12.31,24.43,19.08,38.68,7.64,16.09,20.21,44.53,20.21,44.53.67,1.51,2.31,1.95,3.64.98l40.61-29.45c1.34-.97,1.83-2.97,1.09-4.45,0,0-22.98-46.02-35.94-70.85-15.46-29.64-45.11-83.67-45.11-83.67-.79-1.45-1.98-1.39-2.64.12,0,0-16.63,38.25-26.21,59.21-7.79,17.04-22.2,47.33-22.2,47.33-.71,1.49-2.06,1.6-3,.25,0,0-20.8-29.86-32.07-46.22-11.18-16.23-31.5-46.03-31.5-46.03-.93-1.36-2.05-1.18-2.49.41,0,0-18.13,65.14-27.28,100.26-10.31,39.58-28.15,113.76-28.15,113.76-.39,1.6.65,3,2.29,3.09l44.2,2.57ZM623.68,2.88c-1.65.02-3.03,1.39-3.06,3.04,0,0-.72,38.46,3.12,89.26,2.83,37.43,4.33,85.85,4.33,85.85.05,1.65,1.44,3,3.09,3h49.49c1.65,0,2.93-1.35,2.84-3,0,0-3.16-57.77-4.6-88.58-1.42-30.33-3.63-87.22-3.63-87.22-.06-1.65-1.47-2.98-3.12-2.96l-48.47.61ZM731.97,3.6c-1.65-.05-2.97,1.27-2.92,2.92,0,0,1.65,66.7,2.69,99.46s2.68,76.83,2.68,76.83c.06,1.65,1.45,3.17,3.09,3.38,0,0,32.66,4.19,52.77,9.07,22.76,5.52,57.75,16.39,57.75,16.39,1.58.49,2.89-.46,2.91-2.11l.59-39.62c.02-1.65-1.24-3.42-2.8-3.94,0,0-20.04-6.63-32.9-9.95-8.84-2.29-22.6-5.17-22.6-5.17-1.61-.34-2.97-1.97-3-3.62,0,0-1.04-45.34-1.63-69.51-.55-22.35-2.42-63.56-2.42-63.56-.07-1.65-1.46-3.27-3.07-3.6,0,0-15.43-3.19-25.01-4.53-15.32-2.14-26.11-2.43-26.11-2.43ZM880.09,30.45c-1.63-.26-2.92.88-2.86,2.53,0,0,1.34,40.42,4.21,88.15,2.26,37.47,2.54,94.53,2.54,94.53,0,1.65,1.31,3.36,2.9,3.81,0,0,35.41,9.91,57.37,15.28-1.73-30.24-4.01-83.3-4.01-83.3-.07-1.65-.17-4.35-.23-6l-3.34-103.02c-.04-1.65-1.41-3.21-3.04-3.47l-53.54-8.51ZM1176.97,269.84c.73,1.48.15,3.36-1.28,4.18l-39.04,22.22c-1.43.82-3.21.28-3.95-1.2l-23.53-47.06c-.74-1.48-2.68-2.85-4.32-3.04,0,0-18.63-2.26-33.45-5.26-12.58-2.54-32.8-6.34-32.8-6.34-1.62-.3-3.58.64-4.36,2.09l-14.2,28.32c-.78,1.46-2.43,1.76-3.67.67,0,0-14.07-12.36-24.37-22.89-6.29-6.44-19.87-18.11-19.87-18.11-1.25-1.08-1.62-3.14-.82-4.58,0,0,29.73-53.5,44.93-80.78,15.67-28.12,44.52-81.11,44.52-81.11.79-1.45,2.1-1.46,2.92-.03,0,0,43.36,75.99,65.58,118.25,17.4,33.08,47.7,94.67,47.7,94.67ZM1085.46,197.06c1.65-.03,2.45-1.29,1.78-2.8l-19.4-43.79c-.67-1.51-1.75-1.5-2.39.02l-16.03,37.5c-.65,1.52.1,3.2,1.65,3.75,0,0,7.18,2.51,13.51,3.73,9.32,1.8,20.87,1.59,20.87,1.59ZM1369.57,201.73c-.26,8.38-1.06,27.48-11.57,49.02-3.73,7.64-20.45,39.71-57.19,54.81-17.83,7.33-33.39,7.79-45.96,8.17-20.99.63-46.78-5.44-46.78-5.44-1.61-.38-2.97-2.04-3.03-3.69,0,0-2.6-71.89-3.98-109.34-1.34-36.44-3.97-106.28-3.97-106.28-.06-1.65,1.22-2.8,2.85-2.56,0,0,95.42,14.2,116.52,25.43,27.92,14.86,36.73,30.02,41.53,38.47,11.59,20.37,11.95,39.32,11.57,51.4ZM1311.36,200.02c-.21-4.22-1.55-30.77-23.74-45.45-13.38-8.85-29.94-8.49-29.94-8.49-1.65.04-2.95,1.41-2.89,3.06l3.87,108.39c.06,1.65,1.45,3.16,3.09,3.35,0,0,7.43.88,14.38-1.12,22.66-6.5,36.48-35.1,35.23-59.74ZM1585.23,287.54c.89,1.39.63,3.45-.57,4.58l-44.13,41.34c-1.2,1.13-2.82.85-3.58-.61,0,0-8.74-16.7-13.93-26.45-3.74-7.03-9.81-18.3-9.81-18.3-.78-1.45-2.73-2.29-4.32-1.86,0,0-21.45,5.77-35.4,8.41-14.66,2.78-37.87,5.29-37.87,5.29-1.64.18-3.35,1.62-3.79,3.21l-11.14,39.67c-.45,1.59-1.92,2.12-3.28,1.19,0,0-16.5-11.35-26.12-18.21-7.11-5.07-18.52-13.42-18.52-13.42-1.33-.97-1.93-3.03-1.33-4.57,0,0,29.98-76.71,45.89-116.31,14.6-36.34,43.28-105.99,43.28-105.99.63-1.53,1.81-1.6,2.63-.17,0,0,39.75,69.88,62.35,107.18,20.44,33.74,59.66,95.01,59.66,95.01ZM1489.91,243.53c1.6-.38,2.24-1.86,1.4-3.29,0,0-6.86-11.74-11-19.62-5.25-10.01-12.55-26.12-12.55-26.12-.68-1.5-1.63-1.44-2.12.14l-15.09,49.16c-.48,1.58.47,2.95,2.11,3.06,0,0,9.12.57,16.41.07,9.3-.64,20.83-3.39,20.83-3.39Z" fill="url(#d)" stroke-width="0"/></svg>